# xmcd
# 
# Track frame offsets:
#     150
#     14038
#     29158
#     41008
#     53052
#     65780
#     81530
#     96800
#     107619
#     122122
#     139185
#     150247
#     165668
#     182465
#     197349
#     212594
# 
# Disc length: 3026
# 
# Revision: 2
# Processed by: cddbd v1.5.2PL0 Copyright (c) Steve Scherf et al.
# Submitted via: fre:ac v1.0.17
# 
DISCID=dd0bd010
DTITLE=Pistol Pete's DinosaurTruckers - Down This Road
DYEAR=2009
DGENRE=Bluegrass
TTITLE0=Tear Your Walls Down
TTITLE1=Broken Lightbulbs
TTITLE2=Black Valley River
TTITLE3=Dreary Day Talking Blues
TTITLE4=Gravel And Clay
TTITLE5=The Night Falls Down The Mountain
TTITLE6=My Sweet Lady
TTITLE7=It's Hellfire
TTITLE8=Desolation Blues
TTITLE9=Down This Road
TTITLE10=The Drifting Clouds
TTITLE11=The Good Man's Gambler Blues
TTITLE12=Alright, Anyway
TTITLE13=Thinkin' Of You
TTITLE14=Hellbound Truck Blues
TTITLE15=Come All You Gifted Children
EXTD=FolkBluesBluegrass
EXTT0=
EXTT1=
EXTT2=
EXTT3=
EXTT4=
EXTT5=
EXTT6=
EXTT7=
EXTT8=
EXTT9=
EXTT10=
EXTT11=
EXTT12=
EXTT13=
EXTT14=
EXTT15=
PLAYORDER=
